# xmcd
#
# Track frame offsets:
#	150
#	24992
#	47740
#	68704
#	89814
#	111125
#	133132
#	151733
#	172145
#	191182
#	212926
#	231948
#	253122
#	267754
#
# Disc length: 3851 seconds
#
# Revision: 3
# Processed by: cddbd v1.4PL0 Copyright (c) Steve Scherf et al.
# Submitted via: EasyCDDAExtractor 4.6.9.1
#
DISCID=cf0f090e
DTITLE=POSITION - The Romanticist
DYEAR=2002
DGENRE=Blues
TTITLE0=아직도 사랑해
TTITLE1=독백
TTITLE2=상심
TTITLE3=마지막 약속
TTITLE4=애상
TTITLE5=두려운 이별
TTITLE6=이별 이야기
TTITLE7=바램
TTITLE8=헤어지던 날
TTITLE9=나처럼 되지 않도록
TTITLE10=네가 바란 이별
TTITLE11=그동안
TTITLE12=실연
TTITLE13=마지막 약속(Instrumental)
EXTD=ID3G:   0
EXTT0=옜?옜?^^
EXTT1=
EXTT2=
EXTT3=
EXTT4=
EXTT5=
EXTT6=
EXTT7=
EXTT8=
EXTT9=
EXTT10=
EXTT11=
EXTT12=
EXTT13=
PLAYORDER=
